<svg xmlns="http://www.w3.org/2000/svg" viewBox="0 0 166.84 167.85"><defs><style>.cls-1{fill:#fff;}</style></defs><title>Asset 4</title><g id="Layer_2" data-name="Layer 2"><g id="Layer_1-2" data-name="Layer 1"><path class="cls-1" d="M159.16,138V114.16q0-22.17,0-44.34c0-6.2-1.58-10.63-4.71-13.15s-7.65-3.12-13.56-1.84a5.86,5.86,0,0,0-3,2.33,12.47,12.47,0,0,1-.85,1,1.51,1.51,0,0,0,0,2.13c.28.29.55.61.82.92a9,9,0,0,0,2.65,2.38,7.68,7.68,0,0,0,4.56.3c1.9-.25,3.17-.08,3.88.55S150,66.61,150,69c-.15,15.35-.13,31-.12,46q0,9.72,0,19.45c0,1-.08,2-.16,3.1,0,.12,0,.25,0,.37H16.81V118.51c0-14.65,0-29.8,0-44.7,0-.68,0-1.38,0-2.09-.07-2.58-.14-5.25.87-6.83.32-.37,2.25-.52,3.28-.59a18.37,18.37,0,0,0,4.13-.63,7.07,7.07,0,0,0,3.07-2.62c.32-.39.61-.76.91-1.07a1.48,1.48,0,0,0,.42-1.13,1.52,1.52,0,0,0-.55-1.08,12.21,12.21,0,0,1-.94-.88,6.35,6.35,0,0,0-3.17-2.1c-5.73-1.06-9.93-.39-12.84,2S7.61,63.31,7.6,69.23q0,22.53,0,45.08v23.86C.51,139.35-.14,144.81,0,148.93c.07,1.71.05,3.46,0,5.16,0,1.28,0,2.57,0,3.86.13,7.57,2.49,9.88,10.11,9.88l50.3,0H87.7c22.73,0,46.24,0,69.36-.07,7.15,0,9.58-2.49,9.63-9.81,0-.91,0-1.82,0-2.74a45.7,45.7,0,0,1,.07-5.12C167,147.46,167.63,139.68,159.16,138Zm-2.06,9.8v10.84H9.62V147.81Z"/><path class="cls-1" d="M57.91,91.94a37.73,37.73,0,0,1,18.86,19.9,19.54,19.54,0,0,0,1.68,2.94l.3.48c1.49,2.33,3,3.47,4.66,3.47h.18c1.72-.09,3.2-1.4,4.51-4,.83-1.64,1.58-3.33,2.3-5A65,65,0,0,1,94.28,102c1.27-2,3.45-4.54,5.78-5.4,22.48-8.31,36.49-31.61,32.6-54.21C128.29,17,108.56,0,83.52,0h-.36a49.61,49.61,0,0,0-48,36.82C29.25,58.39,39.24,82.6,57.91,91.94ZM44.68,37.25C49.94,20.78,66.21,8.89,83.06,8.89q1,0,2,.06c18.84,1,34.92,14.92,38.23,33,3.41,18.66-6.25,37.53-22.48,43.9-9.73,3.82-14.94,9-17.43,17.42A3.13,3.13,0,0,1,83,104C79.56,93.72,71.63,88.76,61.74,83.47,46.25,75.17,38.91,55.3,44.68,37.25Z"/><path class="cls-1" d="M69.61,154.45c.37.28.75.62,1.16,1a7.78,7.78,0,0,0,3.65,2.22,22,22,0,0,0,3.7.28c.85,0,1.7,0,2.54-.06s1.64-.06,2.45-.06h0c.86,0,1.72,0,2.59.06a34.32,34.32,0,0,0,6.63-.22A7.51,7.51,0,0,0,96,155.4c.4-.37.78-.72,1.15-1a1.49,1.49,0,0,0,.6-1.16,1.52,1.52,0,0,0-.54-1.19A12.19,12.19,0,0,1,96.13,151c-1-1.08-2.16-2.3-3.69-2.39a157.17,157.17,0,0,0-18.16,0c-1.52.09-2.66,1.32-3.67,2.41a14,14,0,0,1-1.08,1.09,1.53,1.53,0,0,0-.53,1.2A1.51,1.51,0,0,0,69.61,154.45Z"/><path class="cls-1" d="M57.14,46.31c4.93,1.62,7.7,4.19,6.14,8.84-.39,10.33,1,13.17,9.3,14.58a71.87,71.87,0,0,0,20,.6c8.82-1,10.44-3.24,10.09-12.19-.22-5.54,1-9,6.87-10.38a5.82,5.82,0,0,0,3.55-3.71c.21-.86-1.84-2.74-3.23-3.45-7.55-3.89-15.15-7.72-22.89-11.19a9.24,9.24,0,0,0-6.47-.13c-7.92,3-15.71,6.4-23.46,9.85-1.41.63-3.5,2.48-3.31,3.32A6.09,6.09,0,0,0,57.14,46.31ZM88.62,64.75a54.29,54.29,0,0,1-9.54-.09c-9.56-.95-10.21-1.88-9-12.92,8.68,6.73,17.14,6.77,25.51,1.06C98.33,61.87,97,64.09,88.62,64.75ZM82.36,35.21a4.21,4.21,0,0,1,3,.34c5.24,2.49,10.43,5.1,15.92,7.81-12.33,9-24.12,8.49-35.8-1C71.07,40,76.68,37.5,82.36,35.21Z"/></g></g></svg>