<svg xmlns="http://www.w3.org/2000/svg" viewBox="0 0 175.33 125.17"><defs><style>.cls-1{fill:#fff;}</style></defs><title>Asset 6</title><g id="Layer_2" data-name="Layer 2"><g id="Layer_1-2" data-name="Layer 1"><g id="_9yqZ8H" data-name="9yqZ8H"><path class="cls-1" d="M54.27,73,38.68,69.69c-3-.63-4.42-2.37-4.42-5.38V37.86c0-2.92,1.44-4.08,4.32-3.49,4,.84,8.08,1.73,12.12,2.52a2.16,2.16,0,0,1,1.85,1.47,1.46,1.46,0,0,0,.16.3c1,1.86,1.71,4.24,3.19,5.41s3.67,1,5.56,1.4c2.94.63,5.88,1.23,8.81,1.86s4.33,2.38,4.33,5.29q0,10.17,0,20.32c0,2.79-1.48,4-4.27,3.39ZM50.65,57c0,1.63,0,3.24,0,4.88a2.66,2.66,0,0,0,.66,1.72A2,2,0,0,0,53,63.7c2.3-1.07,4.55-2.22,6.79-3.38,1.28-.66,1.31-1.41.07-2.58C57.6,55.6,55.3,53.47,53,51.39c-.41-.37-1.22-.75-1.54-.61a1.74,1.74,0,0,0-.74,1.39C50.59,53.77,50.65,55.41,50.65,57Z"/></g><g id="DfcnEl"><path class="cls-1" d="M132.83,57.79l-.08,0a7.69,7.69,0,0,0-8.87,3,4.65,4.65,0,0,0-.82,3.29,4.09,4.09,0,0,0,3.16,3.43,7.75,7.75,0,0,0,8-2.72,5.26,5.26,0,0,0,1.17-3.56c-.12-2.34-.2-4.69-.29-7l-.54-13.29a9,9,0,0,0-.13-1.47,1.11,1.11,0,0,0-1.72-.87q-9.18,3.85-18.35,7.73a2.28,2.28,0,0,0-.85.69,2.7,2.7,0,0,0-.55,1.8c0,.6,0,1.2.07,1.8.16,3.82.33,7.63.48,11.45,0,.71,0,1.43,0,2.15h-.1a6.29,6.29,0,0,0-3.13-.27,7.61,7.61,0,0,0-5.61,3.61,4.43,4.43,0,0,0-.64,3.23A4,4,0,0,0,107.3,74a7.49,7.49,0,0,0,7.52-2.33,4.93,4.93,0,0,0,1.53-3.74l-.54-13.36a17.11,17.11,0,0,1,0-2.48,2.13,2.13,0,0,1,1.28-1.88q6.9-2.86,13.81-5.7a.93.93,0,0,1,1.29.44,3.12,3.12,0,0,1,.3,1.2c.13,2.87.24,5.73.33,8.6C132.86,55.72,132.83,56.74,132.83,57.79Z"/></g><g id="S8MLlH"><path class="cls-1" d="M155.91,9.49c3.62.47,7,.87,10.28,1.33,2,.28,2.83,1.24,2.85,3.27,0,3.4,0,6.8,0,10.4,1.08,0,2,0,2.94,0,2.36,0,3.34,1,3.34,3.37q0,17,0,34v54.2c0,3.12-.77,3.88-3.92,3.88H102c-.06.46-.11.8-.14,1.15-.19,2.3-1.61,3.95-3.88,4q-10.32.14-20.64,0c-2.5,0-3.64-1.62-4-5.13H3.93C.73,120,0,119.23,0,116V28.82c0-3.66.65-4.32,4.29-4.33h2V14.73c0-2.86.62-3.62,3.46-4,3.12-.43,6.25-.78,9.67-1.2V5.67c0-4.08.32-4.54,4.3-5,14-1.61,27.77-.43,41,4.79A80,80,0,0,1,86.4,18.4l1,.83c4.17-2.86,8.1-5.86,12.31-8.39C113,2.84,127.54-.42,143,.07c3.25.11,6.49.43,9.73.72C155,1,155.88,2,155.91,4.4,155.93,6.07,155.91,7.73,155.91,9.49Zm-72,104.25c0-.74.08-1.19.08-1.65q0-43.32,0-86.65A2.78,2.78,0,0,0,82.93,23C67.31,10,49.26,4.67,29.1,6c-1.24.08-2.48.22-3.78.34V97.82C46.8,95.74,66.38,100.39,83.91,113.74Zm7.42.06c17.55-13.39,37.18-18.07,58.69-16V6.3c-1.11-.1-2.15-.2-3.18-.28-20.27-1.47-38.44,3.77-54.22,16.8a3.27,3.27,0,0,0-1.32,2.79q.06,43.1,0,86.18Zm64.58-98.46v2.32q0,41.19,0,82.38c0,3.1-1.07,4-4.12,3.81-3.35-.27-6.7-.59-10-.66-9.68-.21-19.17.86-28.27,4.41-.32.13-.62.31-.94.47,16.88-2.62,33.72-2.29,50.67-.35V16.23ZM62.84,108.05c-.32-.15-.63-.31-1-.44a61.62,61.62,0,0,0-21.34-4.28c-5.81-.13-11.63.32-17.45.56-2.46.1-3.61-.88-3.67-3.35,0-.27,0-.53,0-.79q0-41.19,0-82.38c0-.65-.05-1.3-.08-2l-7.21.9v91.48C29.09,105.76,46,105.46,62.84,108.05Z"/></g></g></g></svg>