<svg xmlns="http://www.w3.org/2000/svg" viewBox="0 0 512 490.14"><defs><style>.cls-1{fill:#808285;}</style></defs><title>Media</title><g id="Layer_2" data-name="Layer 2"><g id="Capa_1" data-name="Capa 1"><path class="cls-1" d="M504.5,475.14h-4c-3.06-8.8-9.11-28.36-9.11-45.34s6.05-36.53,9.11-45.33h4a7.5,7.5,0,0,0,0-15H447.93a7.5,7.5,0,1,0,0-15h-.81a115.58,115.58,0,0,1-18.59-26.27,7.5,7.5,0,0,0-13.33,6.87,130.42,130.42,0,0,0,12.29,19.4H80.22A37.22,37.22,0,0,1,43,317.3V233.44a37.23,37.23,0,0,1,37.18-37.19H299.84v27.08a10.51,10.51,0,0,0,6.86,9.91c2.9,1.25,8.22.79,11.68-2.92l8.19-9.31,8.18,9.31a10.59,10.59,0,0,0,18.54-7V196.25h74.17a129.63,129.63,0,0,0-26.69,79.12,132.36,132.36,0,0,0,2,22.87,7.5,7.5,0,0,0,7.38,6.2,7.34,7.34,0,0,0,1.31-.12,7.5,7.5,0,0,0,6.08-8.69,116.13,116.13,0,0,1-1.77-20.26,114.8,114.8,0,0,1,31.33-79.12h.83a7.5,7.5,0,1,0,0-15h54a7.5,7.5,0,1,0,0-15H498.8c-2.8-8.15-8.06-25.41-8.06-40.42S496,93.58,498.8,85.44h3.13a7.5,7.5,0,1,0,0-15h-55a7.5,7.5,0,0,0,5.23-12.87,31.17,31.17,0,0,1,0-44.71c4.35-4,2-13-5.23-12.87H108.68a7.5,7.5,0,0,0,0,15H432.35a46.35,46.35,0,0,0,0,40.45H35.58a20.23,20.23,0,1,1,0-40.45h35a7.5,7.5,0,0,0,0-15h-35a35.23,35.23,0,1,0,0,70.45h69.94a55.41,55.41,0,1,0,0,110.81H80.22a52.23,52.23,0,0,0-52.17,52.18V317.3a52.22,52.22,0,0,0,52.17,52.17H60.33a60.34,60.34,0,0,0,0,120.67H375.77a7.5,7.5,0,0,0,0-15H60.33a45.34,45.34,0,1,1,0-90.67H484.67c-3.5,10.92-8.27,28.82-8.27,45.34s4.77,34.41,8.27,45.33H414.19a7.5,7.5,0,0,0,0,15H504.5a7.5,7.5,0,0,0,0-15ZM333.69,206.4a9.49,9.49,0,0,0-14.25,0l-4.6,5.24V120.92H338.3v90.72ZM65.11,125.85a40.46,40.46,0,0,1,40.41-40.41H483c-3.16,10-7.25,25.81-7.25,40.41s4.09,30.4,7.25,40.42H353.29V120.92h67.95a7.5,7.5,0,0,0,0-15h-124a7.5,7.5,0,1,0,0,15h2.57v45.35H105.52a40.46,40.46,0,0,1-40.41-40.42Z"/><path class="cls-1" d="M220.56,279.33H385.35a7.5,7.5,0,1,0,0-15H220.56a7.5,7.5,0,1,0,0,15Z"/><path class="cls-1" d="M297.27,432.31a7.5,7.5,0,0,0,0,15H331a7.5,7.5,0,0,0,0-15Z"/><path class="cls-1" d="M137.05,432.31a7.5,7.5,0,0,0,0,15H264.44a7.5,7.5,0,0,0,0-15Z"/><path class="cls-1" d="M246.74,120.92H266a7.5,7.5,0,0,0,0-15H246.74a7.5,7.5,0,0,0,0,15Z"/><path class="cls-1" d="M114.26,326.37a11.39,11.39,0,0,0,12-1l23.65-17.3,23.66,17.3c5.77,5,18.33.78,18.24-9.25V249h22a7.5,7.5,0,1,0,0-15h-124a7.5,7.5,0,0,0,0,15H108v67.19a11.41,11.41,0,0,0,6.28,10.22Zm62.51-17.17L154.3,292.76a7.52,7.52,0,0,0-8.85,0L123,309.2V249h53.79V309.2Z"/></g></g></svg>