<svg xmlns="http://www.w3.org/2000/svg" viewBox="0 0 166.03 168.1"><defs><style>.cls-1{fill:#fff;}</style></defs><title>8wZ5jQ</title><g id="Layer_2" data-name="Layer 2"><g id="Layer_1-2" data-name="Layer 1"><g id="_8wZ5jQ" data-name="8wZ5jQ"><path class="cls-1" d="M83.64,0c1.61.35,3.25.58,4.83,1.06A23.21,23.21,0,0,1,105,23.33a22.63,22.63,0,0,1-8.8,18.41,43.43,43.43,0,0,1-6,3.61l-51.25,29c-.26.15-.55.26-.87.42l-7.5-9.66c.7-.51,1.38-1,2-1.46A12.19,12.19,0,0,0,36.5,50.37a12,12,0,0,0-10.31-8.68,12.06,12.06,0,0,0-11.87,5.67,11.24,11.24,0,0,0-.24,12.74,89.7,89.7,0,0,0,6.51,8.84q15.61,20,31.28,39.89c5.14,6.55,10.3,13.09,15.41,19.66a23.76,23.76,0,0,1,5,13.18c0,.23,0,.46.08.86l4.49-2.8Q97.91,126.41,119,113.09a12.36,12.36,0,0,0,5.5-6.66,11,11,0,0,0-2-10.72c-1-1.32-2.11-2.62-3.23-4a44.21,44.21,0,0,0,4.69-1.09c2.34-.81,4.64-1.77,6.91-2.77.63-.27.89-.18,1.27.31A23.5,23.5,0,0,1,126.17,123q-32.69,20.66-65.4,41.27a23.23,23.23,0,0,1-10.59,3.63,4.69,4.69,0,0,0-.58.17H45.87a4.34,4.34,0,0,0-.69-.17,24.13,24.13,0,0,1-15.2-7.3,24.48,24.48,0,0,1-3.63-29.76,23.64,23.64,0,0,1,7.88-8.19l7.55,9.69-.71.43c-8,4.85-7.42,15.87-.75,20.73A12.47,12.47,0,0,0,57.5,135.84c-2.64-3.42-5.32-6.81-8-10.21L6.25,70.49A28.7,28.7,0,0,1,.87,60.07c-.38-1.46-.58-3-.87-4.45V51.47a3,3,0,0,0,.18-.58A22.69,22.69,0,0,1,11,33.55c3.76-2.37,7.83-4.25,11.79-6.29q20.48-10.5,41-21C67.1,4.57,70.48,2.82,74,1.35A33.46,33.46,0,0,1,79.69,0ZM38,33.21A25.14,25.14,0,0,1,49.4,54.55c.41-.21.71-.36,1-.53L86.74,33.44A11.86,11.86,0,0,0,91,29.63a11.49,11.49,0,0,0-1.18-13.84,11.05,11.05,0,0,0-13.2-2.37c-10.51,5.33-21,10.73-31.46,16.1Z"/><path class="cls-1" d="M166,15.15c-.64,2.4-1.2,4.81-1.93,7.18a57.48,57.48,0,0,1-6.65,14.91,5,5,0,0,1-1.63,1.51,33.94,33.94,0,0,1-10.21,3.59,1.59,1.59,0,0,0-.81.37c1,.19,2,.43,3,.57s2.06.23,3.09.28,2.14,0,3.31,0a4,4,0,0,1-.22.69c-2.39,4.32-4.77,8.64-7.22,12.93a4,4,0,0,1-1.64,1.45,36.22,36.22,0,0,1-12.1,3.41,11.85,11.85,0,0,0-1.65.28,20.33,20.33,0,0,0,10.77,1.77c-1.51,1.81-2.8,3.46-4.19,5A40.71,40.71,0,0,1,124.67,79.5a21,21,0,0,1-10.86,2.07,1.47,1.47,0,0,0-1.6.8c-3.17,5.35-6.37,10.67-9.53,16a2.61,2.61,0,0,1-1.58,1.33c-2.49.72-4.95,1.53-7.42,2.3l-.67.15c4.07-7.93,8.41-15.5,13.14-22.83a202.18,202.18,0,0,1,15.49-21.12,136.36,136.36,0,0,0-19.06,16.45,21.73,21.73,0,0,1-2.14-6.62c-1-5.81.41-11.18,3.19-16.26a46.05,46.05,0,0,1,8.62-11,18.21,18.21,0,0,0,3,9.91c.09-1.84.14-3.47.26-5.09a30.18,30.18,0,0,1,2.32-9.53,3.41,3.41,0,0,1,.89-1.23,83.65,83.65,0,0,1,14.17-9.71,3.08,3.08,0,0,1,.47-.16,15.79,15.79,0,0,0,.83,8.79c.71-2.28,1.42-4.46,2.07-6.65A11.15,11.15,0,0,1,143,19.91a53.31,53.31,0,0,1,18.07-5c1.65-.12,3.31-.13,5-.18Z"/><path class="cls-1" d="M93.41,76,56.47,97.64,50.88,90l36.7-21.52Z"/><path class="cls-1" d="M68.16,113.06l-5.58-7.64,25-14.65.14.14c-.79,1.52-1.58,3-2.36,4.55-1.69,3.33-3.35,6.66-5.08,10a3.26,3.26,0,0,1-1.16,1.23c-3.41,2-6.85,4-10.27,6Z"/></g></g></g></svg>