<svg xmlns="http://www.w3.org/2000/svg" viewBox="0 0 145.56 145.6"><defs><style>.cls-1{fill:#fff;}</style></defs><title>Asset 3</title><g id="Layer_2" data-name="Layer 2"><g id="Layer_1-2" data-name="Layer 1"><g id="j5o6eA"><path class="cls-1" d="M95.63,103c1.54,3.09,2.94,5.92,4.35,8.74q6.45,12.9,12.91,25.81a5.3,5.3,0,0,1-.45,6.06,5.07,5.07,0,0,1-5.34,1.85,5.54,5.54,0,0,1-3.88-3.34c-5.73-11.5-11.64-22.91-17.12-34.52-1.67-3.55-3.51-5-7.52-4.7a143.81,143.81,0,0,1-14.83.06,2.53,2.53,0,0,0-2.7,1.65C54.91,117,48.67,129.42,42.5,141.83c-.88,1.78-2,3.22-4,3.63a5.08,5.08,0,0,1-5.33-1.85,5.21,5.21,0,0,1-.54-5.91q4-8.08,8.08-16.15l8.58-17.17c.18-.37.34-.75.62-1.38H6.5C1.92,103,0,101.11,0,96.57V6.2C0,2.1,2.05,0,6.13,0h133.3c4.1,0,6.13,2.06,6.13,6.18V96.88c0,4.11-2,6.11-6.15,6.12H95.63Zm39.11-10.77V10.78H10.83V92.23Z"/></g><g id="y3Tr6v"><path class="cls-1" d="M38.06,73.85V22h65v9.29h9.26V32q0,20.4,0,40.81a16.84,16.84,0,0,1-.29,3.17,7.48,7.48,0,0,1-7.63,6.35c-18.79-.06-37.59,0-56.39,0a17.32,17.32,0,0,1-2.17-.12,7.88,7.88,0,0,1-6.73-4.92A31.24,31.24,0,0,1,38.06,73.85ZM42.7,26.62v46c0,.22,0,.43,0,.65a4.43,4.43,0,0,0,3.05,4.16,8.09,8.09,0,0,0,2.08.22H99.94c-1.57-1.91-1.57-4.06-1.57-6.22q0-21.93,0-43.86v-.92Z"/><path class="cls-1" d="M68.17,68.31H47.38V45.2H68.17Z"/><path class="cls-1" d="M47.37,40.45V35.9H93.68v4.55Z"/><path class="cls-1" d="M72.89,49.73V45.18H93.7v4.55Z"/><path class="cls-1" d="M72.89,59V54.46H93.68V59Z"/><path class="cls-1" d="M72.89,68.29V63.74H89v4.55Z"/></g></g></g></svg>