<svg xmlns="http://www.w3.org/2000/svg" viewBox="0 0 163.49 159.77"><defs><style>.cls-1{fill:#fff;}</style></defs><title>Asset 1</title><g id="Layer_2" data-name="Layer 2"><g id="Layer_1-2" data-name="Layer 1"><path class="cls-1" d="M163.45,45.78c-.93-4.6-3.64-8.48-8-11.54-5.67-3.94-13-3.08-18.34,2.12-2.91,2.86-5.83,5.8-8.66,8.65l-1.87,1.88V34.18l.45-.13c1.08-.3,2.2-.61,3.28-1A16.66,16.66,0,0,0,140.55,20,16.74,16.74,0,0,0,134.9,4.25,17.48,17.48,0,0,0,123.46,0H94C68.88,0,42.91,0,17.37,0,7.48.05,0,7.61,0,17.62q0,43.47,0,86.94v37.75a1.5,1.5,0,0,0,1.5,1.5H13.41v14.46a1.5,1.5,0,0,0,1.5,1.5H125a1.5,1.5,0,0,0,1.5-1.5V144.36q0-26.19,0-52.4a2.7,2.7,0,0,1,.88-2.21Q134.2,83,141,76.19q8-8,16-16c2.66-2.64,5.57-5.83,6.45-10.4a1.33,1.33,0,0,0,0-.28V46.08A1,1,0,0,0,163.45,45.78Zm-10,7.19L142.34,41.85a6.37,6.37,0,0,1,5.78-2.33,9.08,9.08,0,0,1,7.33,6.27C156.42,48.35,155.78,50.65,153.45,53Zm-5.93,5.51L94.86,111.14,84.14,100.41l52.65-52.65ZM122.59,26.76H31.42c4-6.32,4-12.75,0-19.14h20.2q35.44,0,70.88,0h0c4.71,0,7.8,1.72,9.72,5.41a9.31,9.31,0,0,1-.24,8.84,9.33,9.33,0,0,1-7.45,4.85C124,26.74,123.32,26.76,122.59,26.76ZM24.71,23.11a9,9,0,0,1-6.34,3.57c-.73.06-1.47.09-2.26.11l-1.21.05a1.49,1.49,0,0,0-1.44,1.5V136.1H7.66V18.2c0-5.41,2.63-9.07,7.41-10.31A9.28,9.28,0,0,1,22.39,9.2a9.38,9.38,0,0,1,4.24,6.19A9.92,9.92,0,0,1,24.71,23.11ZM112,114.26a1.5,1.5,0,0,0,1.5-1.5v-4.58a1.5,1.5,0,0,0-1.5-1.5h-.61l7.43-7.43v52.89H21.14V34.51H118.9v3.37c0,5.23,0,10.64,0,16a2,2,0,0,1-.48,1.14c-1.28,1.34-2.62,2.68-3.92,4s-2.55,2.53-3.78,3.82a2.63,2.63,0,0,1-2.17.92h0q-31.47,0-62.94,0H30.38a1.5,1.5,0,0,0-1.5,1.5v4.59a1.5,1.5,0,0,0,1.5,1.5h71.79l-1,1c-1.61,1.6-3.28,3.26-4.89,4.94a2.26,2.26,0,0,1-1.9.79h0q-25.42,0-50.86,0H30.35a1.5,1.5,0,0,0-1.5,1.5V84a1.5,1.5,0,0,0,1.5,1.5H87.78a31.41,31.41,0,0,0-3.16,3.35c-2,2.57-4.35,3.55-8.37,3.47-10.63-.19-21.42-.16-31.87-.13q-6,0-12,0h-2a1.5,1.5,0,0,0-1.5,1.5v4.58a1.5,1.5,0,0,0,1.5,1.5H74.59l-.15.51c-.62,2-1.2,3.92-1.73,5.89-.06.24-.12.35-.11.37l-.48,0c-10.5,0-21,0-31.51,0H30.37a1.5,1.5,0,0,0-1.5,1.5v4.61a1.5,1.5,0,0,0,1.5,1.5H70.29l-.07.23c-.66,2.23-1.28,4.34-2,6.42l-.29,0q-13.38,0-26.77,0H30.4a1.5,1.5,0,0,0-1.5,1.5v4.48a1.5,1.5,0,0,0,1.5,1.5h81.54a1.5,1.5,0,0,0,1.5-1.5v-4.44a1.5,1.5,0,0,0-1.5-1.5H94.73a8.54,8.54,0,0,0,4.56-3.13,8.19,8.19,0,0,1,8.75-3.64,12.75,12.75,0,0,0,2.75.08C111.17,114.28,111.56,114.26,112,114.26Zm-34.87,3.95,3-10.17,7.15,7.16Z"/><rect class="cls-1" x="28.86" y="49.4" width="84.63" height="7.43" rx="1.5" ry="1.5"/><rect class="cls-1" x="28.86" y="133.78" width="84.58" height="7.44" rx="1.5" ry="1.5"/><path class="cls-1" d="M123.58,9.43c-7.3-.09-14.61,0-21.92,0a6.09,6.09,0,0,0-.73.1v4.54h21.36c3.66,0,4.65,1,4.41,4.71l3.79,1.95A7.68,7.68,0,0,0,123.58,9.43Z"/><path class="cls-1" d="M88.46,14H94V9.51H88.46Z"/><path class="cls-1" d="M132.57,71.1l12.52-12.54-5.82-5.87L135.7,56l3.17,2.62-9.37,9.35Z"/><path class="cls-1" d="M129.57,74.17l-3.12-3.24-2.86,3,3,3.06Z"/></g></g></svg>