<svg xmlns="http://www.w3.org/2000/svg" viewBox="0 0 125.86 157.7"><defs><style>.cls-1{fill:#fff;}</style></defs><title>UV4sfM</title><g id="Layer_2" data-name="Layer 2"><g id="Layer_1-2" data-name="Layer 1"><g id="UV4sfM"><path class="cls-1" d="M109.45,0c2.56,1,5.34,1.58,7.64,3a17.38,17.38,0,0,1,8.67,14.9c.17,4.46.07,8.93.07,13.4q0,41,0,82.06a3.63,3.63,0,0,1-1.15,2.82q-20.3,20.21-40.5,40.5a3.11,3.11,0,0,1-2.39,1c-20.89,0-41.78,0-62.67,0a18.59,18.59,0,0,1-18.88-16A22.64,22.64,0,0,1,.07,138C.06,98.56.15,59.14,0,19.73,0,8.56,8,1.12,16.05.22c.14,0,.26-.14.39-.22Zm-1.73,6.62c0,1.78-.07,3.57,0,5.35a2.81,2.81,0,0,0,.84,1.78,6.55,6.55,0,1,1-8.1,0c.32-.28.74-.69.76-1.05.07-2,0-4.08,0-6.15H80c0,2.09,0,4.14,0,6.17,0,.36.45.76.78,1a6.53,6.53,0,1,1-8.09,0,2.05,2.05,0,0,0,.8-1.19c.08-2,0-4,0-6H52.3c0,1.85-.08,3.59,0,5.32a3.05,3.05,0,0,0,.89,1.91,6.54,6.54,0,1,1-8.91,9.55A6.55,6.55,0,0,1,45,13.78c.33-.29.81-.67.82-1,.08-2.07,0-4.15,0-6.21H24.58c0,1.82-.09,3.57.05,5.29a3.35,3.35,0,0,0,1,2,6.58,6.58,0,0,1,2.12,6.55,6.39,6.39,0,0,1-5.94,5,6.55,6.55,0,0,1-6.47-4,6.66,6.66,0,0,1,1.82-7.43c.4-.35,1-.81,1-1.25.11-2,.05-4.05.05-6.26A28,28,0,0,0,15.25,7C9.56,8.84,6.5,13.25,6.5,19.65q0,59.2,0,118.41a15.45,15.45,0,0,0,.34,3.66c1.46,5.9,6.13,9.49,12.38,9.5q31.32,0,62.66,0c.39,0,.78-.06,1.3-.11v-1.76c0-6.52,0-13,0-19.56A14.5,14.5,0,0,1,86,120.58c3-4,7.2-5.61,12.07-5.63,6.52,0,13,0,19.56,0h1.72V19.87c0-.92,0-1.85-.12-2.76C118.76,11.51,113.33,6.53,107.72,6.62Z"/><path class="cls-1" d="M30.93,129.36l11-13.48c1-1.19,1.91-2.41,2.91-3.57a6.46,6.46,0,0,1,9.08-1,6.37,6.37,0,0,1,.91,9.07q-9.24,11.52-18.65,22.89c-2.79,3.37-7.09,3.4-10,.18-2.35-2.57-4.65-5.2-6.9-7.85-2.6-3.07-2.41-6.88.39-9.34s6.63-2,9.31.9C29.56,127.8,30.16,128.5,30.93,129.36Z"/><path class="cls-1" d="M62.85,61.92c-9.7,0-19.4,0-29.09-.06a5.4,5.4,0,0,1-3.42-1.31,3.81,3.81,0,0,1,2.07-6.43A8.59,8.59,0,0,1,34.24,54Q63,54,91.67,54a7.26,7.26,0,0,1,3.32.86A3.64,3.64,0,0,1,96.51,59a4.16,4.16,0,0,1-3.33,2.84,15.89,15.89,0,0,1-1.69,0Z"/><path class="cls-1" d="M62.94,69.55H92.19c2.25,0,3.89,1.15,4.33,3a3.93,3.93,0,0,1-3.25,4.86,10.65,10.65,0,0,1-1.69.1H34.31c-1.54,0-3-.15-4.07-1.39a3.67,3.67,0,0,1-.72-4,3.83,3.83,0,0,1,3.71-2.51H62.94Z"/><path class="cls-1" d="M63.1,38.48q14.62,0,29.25,0a4,4,0,0,1,4.28,3.72,3.92,3.92,0,0,1-3.07,4,9.35,9.35,0,0,1-2,.17H34.31a5,5,0,0,1-4-1.29A3.66,3.66,0,0,1,29.52,41a3.83,3.83,0,0,1,3.71-2.52H63.1Z"/><path class="cls-1" d="M62.94,93q-14.62,0-29.25,0a4.18,4.18,0,0,1-4.18-2.56,3.92,3.92,0,0,1,2.82-5.25A9.43,9.43,0,0,1,34.46,85h57a13.2,13.2,0,0,1,1.54,0,4,4,0,0,1,3.66,4.19,4,4,0,0,1-4,3.72c-3.13.06-6.26,0-9.39,0Z"/></g></g></g></svg>